<svg width="95" height="91" viewBox="0 0 95 91" fill="none" xmlns="http://www.w3.org/2000/svg">
<path d="M93.9482 1.32004C92.5482 -0.279959 90.0482 -0.479959 88.4482 1.02004C82.2482 6.42004 76.5482 12.12 70.8482 18.02C65.2482 23.92 59.7482 29.92 54.4482 36.12C46.6482 45.42 39.1482 55.12 32.1482 65.12L6.74821 37.82C5.54821 36.52 3.54821 36.12 1.94821 37.12C0.0482074 38.22 -0.551793 40.62 0.548207 42.52C0.548207 42.52 24.7482 84.22 25.7482 86.02C26.7482 87.72 28.9482 90.42 33.4482 90.42C37.8482 90.42 40.2482 87.82 41.6482 85.12C43.1482 82.32 56.5482 57.52 65.2482 44.42C69.5482 37.82 74.2482 31.42 78.9482 25.12C83.7482 18.82 88.7482 12.62 93.8482 6.82004L93.9482 6.72004C95.2482 5.02004 95.2482 2.82004 93.9482 1.32004Z" fill="#41AD48"/>
</svg>
